<svg width="32" height="32" viewBox="0 0 32 32" fill="none" xmlns="http://www.w3.org/2000/svg">
<g clip-path="url(#clip0_8_2)">
<path opacity="0.994001" d="M32 16C32 7.16342 24.8365 0 16 0C7.16345 0 0 7.16342 0 16C0 24.8365 7.16345 32 16 32C24.8365 32 32 24.8365 32 16Z" fill="#587B98"/>
<path opacity="0.994001" d="M2.73901 7.48535C28.5941 6.49199 28.5941 6.49197 28.5941 6.49197L14.5536 30.3329L9.07434 22.2331L14.2682 27.6584L26.311 7.94382L2.73901 7.48535Z" fill="url(#paint0_linear_8_2)"/>
<path opacity="0.994001" d="M9.07434 22.2331L19.9244 16.2261L13.2538 12.4579L18.3202 16.4522L9.07434 22.2331Z" fill="url(#paint1_linear_8_2)"/>
<path opacity="0.994001" d="M19.3334 10.8L9.93286 11.2898L16.6315 16L7.73743 10.913L19.3334 10.8Z" fill="#E1E1E1"/>
</g>
<defs>
<linearGradient id="paint0_linear_8_2" x1="2.73639" y1="18.3957" x2="28.6568" y2="18.3957" gradientUnits="userSpaceOnUse">
<stop stop-color="#1E3D3A"/>
</linearGradient>
<linearGradient id="paint1_linear_8_2" x1="9.03796" y1="17.3457" x2="19.9579" y2="17.3457" gradientUnits="userSpaceOnUse">
<stop stop-color="#1E3D3A"/>
</linearGradient>
<clipPath id="clip0_8_2">
<rect width="32" height="32" fill="white"/>
</clipPath>
</defs>
</svg>
