<?xml version="1.0" encoding="UTF-8" standalone="no"?>
<!-- Created with Inkscape (http://www.inkscape.org/) -->

<svg
   version="1.1"
   id="svg1"
   width="160.00002"
   height="160"
   viewBox="0 0 160.00001 160"
   xml:space="preserve"
   xmlns:xlink="http://www.w3.org/1999/xlink"
   xmlns="http://www.w3.org/2000/svg"
   xmlns:svg="http://www.w3.org/2000/svg"><defs
     id="defs1"><linearGradient
       id="swatch184"><stop
         style="stop-color:#000000;stop-opacity:1;"
         offset="0"
         id="stop184" /></linearGradient><linearGradient
       id="swatch182"><stop
         style="stop-color:#000000;stop-opacity:1;"
         offset="0"
         id="stop182" /></linearGradient><linearGradient
       id="swatch153"><stop
         style="stop-color:#dce3ea;stop-opacity:0.99607801;"
         offset="0"
         id="stop153" /></linearGradient><linearGradient
       id="swatch146"><stop
         style="stop-color:#dce3ea;stop-opacity:0.99607801;"
         offset="0"
         id="stop146" /></linearGradient><linearGradient
       id="swatch136"><stop
         style="stop-color:#000000;stop-opacity:1;"
         offset="0"
         id="stop136" /></linearGradient><linearGradient
       id="swatch135"><stop
         style="stop-color:#dce3ea;stop-opacity:1;"
         offset="0"
         id="stop135" /></linearGradient><linearGradient
       id="swatch134"><stop
         style="stop-color:#dce3ea;stop-opacity:0.99607801;"
         offset="0"
         id="stop134" /></linearGradient><linearGradient
       id="swatch57"><stop
         style="stop-color:#000000;stop-opacity:1;"
         offset="0"
         id="stop57" /></linearGradient><linearGradient
       id="swatch41"><stop
         style="stop-color:#dce3ea;stop-opacity:1;"
         offset="0"
         id="stop41" /></linearGradient><linearGradient
       id="swatch1"><stop
         style="stop-color:#dce3ea;stop-opacity:1;"
         offset="0"
         id="stop1" /></linearGradient><linearGradient
       id="swatch173"><stop
         style="stop-color:#000000;stop-opacity:1;"
         offset="0"
         id="stop173" /></linearGradient><linearGradient
       id="swatch169"><stop
         style="stop-color:#dce3ea;stop-opacity:1;"
         offset="0"
         id="stop169" /></linearGradient><linearGradient
       id="swatch129"><stop
         style="stop-color:#000000;stop-opacity:1;"
         offset="0"
         id="stop129" /></linearGradient><linearGradient
       id="swatch128"><stop
         style="stop-color:#000000;stop-opacity:1;"
         offset="0"
         id="stop128" /></linearGradient><linearGradient
       id="swatch127"><stop
         style="stop-color:#ffffff;stop-opacity:1;"
         offset="0"
         id="stop127" /></linearGradient><linearGradient
       id="swatch126"><stop
         style="stop-color:#e1e1e1;stop-opacity:1;"
         offset="0"
         id="stop126" /></linearGradient><linearGradient
       id="swatch125"><stop
         style="stop-color:#64cb8f;stop-opacity:1;"
         offset="0"
         id="stop125" /></linearGradient><linearGradient
       id="swatch123"><stop
         style="stop-color:#000000;stop-opacity:1;"
         offset="0"
         id="stop123" /></linearGradient><linearGradient
       id="swatch21"><stop
         style="stop-color:#1e3d3a;stop-opacity:1;"
         offset="0"
         id="stop21" /></linearGradient><linearGradient
       id="swatch14"><stop
         style="stop-color:#dce3ea;stop-opacity:0;"
         offset="0"
         id="stop14" /></linearGradient><linearGradient
       id="swatch10"><stop
         style="stop-color:#ee11ee;stop-opacity:0.06666667;"
         offset="0"
         id="stop10" /></linearGradient><linearGradient
       id="swatch9"><stop
         style="stop-color:#1e3d3a;stop-opacity:1;"
         offset="0"
         id="stop9" /></linearGradient><linearGradient
       id="swatch8"><stop
         style="stop-color:#587b98;stop-opacity:1;"
         offset="0"
         id="stop8" /></linearGradient><linearGradient
       xlink:href="#swatch9"
       id="linearGradient9"
       x1="1200.7007"
       y1="418.74918"
       x2="1304.0417"
       y2="418.74918"
       gradientUnits="userSpaceOnUse"
       gradientTransform="translate(-6.438736)" /><linearGradient
       xlink:href="#swatch21"
       id="linearGradient21"
       x1="1225.8241"
       y1="415.07272"
       x2="1269.3605"
       y2="415.07272"
       gradientUnits="userSpaceOnUse"
       gradientTransform="translate(-6.438736)" /></defs><g
     id="g2"
     transform="translate(-1165.1158,-353.77129)"><rect
       style="opacity:0.994001;fill:#587b98;fill-opacity:1;stroke:#000000;stroke-width:0;stroke-linecap:round;stroke-linejoin:bevel;stroke-miterlimit:0;stroke-dasharray:none"
       id="rect8"
       width="160"
       height="160"
       x="1165.1158"
       y="353.7713"
       rx="80"
       ry="80" /><path
       style="opacity:0.994001;fill:url(#linearGradient9);fill-opacity:1;stroke:#000000;stroke-width:0;stroke-linecap:round;stroke-linejoin:bevel;stroke-miterlimit:0;stroke-dasharray:none"
       d="m 1194.2722,380.5491 c 103.0807,-3.47808 103.0807,-3.47808 103.0807,-3.47808 l -55.9775,83.47354 -21.845,-28.3596 20.7072,18.99558 48.0132,-69.0262 z"
       id="path2-3" /><path
       style="opacity:0.994001;fill:url(#linearGradient21);fill-opacity:1;stroke:#000000;stroke-width:0;stroke-linecap:round;stroke-linejoin:bevel;stroke-miterlimit:0;stroke-dasharray:none"
       d="m 1219.5304,432.18496 43.2575,-21.03214 -26.5943,-13.19337 20.1982,13.98498 z"
       id="path3-5" /><path
       style="opacity:0.994001;fill:#e1e1e1;fill-opacity:1;stroke:#000000;stroke-width:0;stroke-linecap:round;stroke-linejoin:bevel;stroke-miterlimit:0;stroke-dasharray:none"
       d="m 1260.4315,392.15437 -37.4789,1.71514 26.7065,16.49171 -35.4591,-17.81105 z"
       id="path4-6" /><g
       id="text4-2"
       style="font-size:16px;line-height:0.9;font-family:'Noto Serif Grantha';-inkscape-font-specification:'Noto Serif Grantha';text-align:center;letter-spacing:0.55px;word-spacing:0px;text-anchor:middle;opacity:0.994001;fill:#e1e1e1;stroke:#000000;stroke-width:0;stroke-linecap:round;stroke-linejoin:bevel;stroke-miterlimit:0"
       aria-label="DE SANDRO&#10;SEGUROS"><path
         d="m 1208.1827,473.17188 q 0,2.896 -1.584,4.368 -1.568,1.456 -4.384,1.456 h -3.184 v -11.424 h 3.52 q 1.728,0 2.992,0.64 1.264,0.64 1.952,1.888 0.688,1.232 0.688,3.072 z m -1.52,0.048 q 0,-2.288 -1.136,-3.344 -1.12,-1.072 -3.184,-1.072 h -1.872 v 8.96 h 1.552 q 4.64,0 4.64,-4.544 z m 10.982,5.776 h -6.384 v -11.424 h 6.384 v 1.264 h -4.944 v 3.568 h 4.656 v 1.248 h -4.656 v 4.08 h 4.944 z m 14.252,-3.056 q 0,1.52 -1.104,2.368 -1.104,0.848 -2.976,0.848 -0.96,0 -1.776,-0.144 -0.816,-0.144 -1.36,-0.4 v -1.376 q 0.576,0.256 1.424,0.464 0.864,0.208 1.776,0.208 1.28,0 1.92,-0.496 0.656,-0.496 0.656,-1.344 0,-0.56 -0.24,-0.944 -0.24,-0.384 -0.832,-0.704 -0.576,-0.336 -1.616,-0.704 -1.456,-0.528 -2.208,-1.296 -0.736,-0.768 -0.736,-2.096 0,-0.912 0.464,-1.552 0.464,-0.656 1.28,-1.008 0.832,-0.352 1.904,-0.352 0.944,0 1.728,0.176 0.784,0.176 1.424,0.464 l -0.448,1.232 q -0.592,-0.256 -1.296,-0.432 -0.688,-0.176 -1.44,-0.176 -1.072,0 -1.616,0.464 -0.544,0.448 -0.544,1.2 0,0.576 0.24,0.96 0.24,0.384 0.784,0.688 0.544,0.304 1.472,0.656 1.008,0.368 1.696,0.8 0.704,0.416 1.056,1.008 0.368,0.592 0.368,1.488 z m 10.022,3.056 -1.376,-3.536 h -4.528 l -1.36,3.536 h -1.456 l 4.464,-11.472 h 1.296 l 4.448,11.472 z m -3.088,-8.272 q -0.048,-0.128 -0.16,-0.464 -0.112,-0.336 -0.224,-0.688 -0.096,-0.368 -0.16,-0.56 -0.112,0.496 -0.256,0.976 -0.144,0.464 -0.24,0.736 l -1.296,3.456 h 3.616 z m 15.75,8.272 h -1.68 l -6.112,-9.488 h -0.064 q 0.032,0.56 0.08,1.392 0.048,0.832 0.048,1.712 v 6.384 h -1.328 v -11.424 h 1.664 l 6.096,9.456 h 0.064 q -0.016,-0.256 -0.048,-0.768 -0.016,-0.512 -0.048,-1.12 -0.016,-0.608 -0.016,-1.12 v -6.448 h 1.344 z m 12.806,-5.824 q 0,2.896 -1.584,4.368 -1.568,1.456 -4.384,1.456 h -3.184 v -11.424 h 3.52 q 1.728,0 2.992,0.64 1.264,0.64 1.952,1.888 0.688,1.232 0.688,3.072 z m -1.52,0.048 q 0,-2.288 -1.136,-3.344 -1.12,-1.072 -3.184,-1.072 h -1.872 v 8.96 h 1.552 q 4.64,0 4.64,-4.544 z m 7.75,-5.648 q 2.128,0 3.136,0.816 1.024,0.8 1.024,2.432 0,0.912 -0.336,1.52 -0.336,0.608 -0.864,0.976 -0.512,0.352 -1.088,0.56 l 3.136,5.12 h -1.68 l -2.768,-4.72 h -2.272 v 4.72 h -1.44 v -11.424 z m -0.08,1.248 h -1.632 v 4.24 h 1.712 q 1.392,0 2.032,-0.544 0.64,-0.56 0.64,-1.632 0,-1.12 -0.672,-1.584 -0.672,-0.48 -2.08,-0.48 z m 17.398,4.448 q 0,1.776 -0.608,3.104 -0.592,1.312 -1.76,2.048 -1.168,0.736 -2.896,0.736 -1.776,0 -2.96,-0.736 -1.168,-0.736 -1.744,-2.064 -0.576,-1.328 -0.576,-3.104 0,-1.76 0.576,-3.072 0.576,-1.312 1.744,-2.048 1.184,-0.736 2.976,-0.736 1.712,0 2.88,0.736 1.168,0.72 1.76,2.048 0.608,1.312 0.608,3.088 z m -9.024,0 q 0,2.16 0.912,3.408 0.912,1.232 2.848,1.232 1.952,0 2.848,-1.232 0.896,-1.248 0.896,-3.408 0,-2.16 -0.896,-3.376 -0.896,-1.232 -2.832,-1.232 -1.936,0 -2.864,1.232 -0.912,1.216 -0.912,3.376 z"
         id="path1" /><path
         d="m 1215.2237,491.58209 q 0,1.52 -1.104,2.368 -1.104,0.848 -2.976,0.848 -0.96,0 -1.776,-0.144 -0.816,-0.144 -1.36,-0.4 v -1.376 q 0.576,0.256 1.424,0.464 0.864,0.208 1.776,0.208 1.28,0 1.92,-0.496 0.656,-0.496 0.656,-1.344 0,-0.56 -0.24,-0.944 -0.24,-0.384 -0.832,-0.704 -0.576,-0.336 -1.616,-0.704 -1.456,-0.528 -2.208,-1.296 -0.736,-0.768 -0.736,-2.096 0,-0.912 0.464,-1.552 0.464,-0.656 1.28,-1.008 0.832,-0.352 1.904,-0.352 0.944,0 1.728,0.176 0.784,0.176 1.424,0.464 l -0.448,1.232 q -0.592,-0.256 -1.296,-0.432 -0.688,-0.176 -1.44,-0.176 -1.072,0 -1.616,0.464 -0.544,0.448 -0.544,1.2 0,0.576 0.24,0.96 0.24,0.384 0.784,0.688 0.544,0.304 1.472,0.656 1.008,0.368 1.696,0.8 0.704,0.416 1.056,1.008 0.368,0.592 0.368,1.488 z m 9.238,3.056 h -6.384 v -11.424 h 6.384 v 1.264 h -4.944 v 3.568 h 4.656 v 1.248 h -4.656 v 4.08 h 4.944 z m 8.022,-6.032 h 3.952 v 5.6 q -0.928,0.304 -1.872,0.448 -0.944,0.144 -2.144,0.144 -1.776,0 -2.992,-0.704 -1.216,-0.72 -1.856,-2.032 -0.624,-1.328 -0.624,-3.136 0,-1.792 0.704,-3.104 0.704,-1.312 2.016,-2.032 1.328,-0.736 3.2,-0.736 0.96,0 1.808,0.176 0.864,0.176 1.6,0.496 l -0.544,1.248 q -0.608,-0.272 -1.376,-0.464 -0.752,-0.192 -1.568,-0.192 -2.048,0 -3.2,1.232 -1.136,1.232 -1.136,3.376 0,1.36 0.432,2.416 0.448,1.04 1.392,1.632 0.944,0.576 2.48,0.576 0.752,0 1.28,-0.08 0.528,-0.08 0.96,-0.192 v -3.392 h -2.512 z m 15.926,2 q 0,1.184 -0.48,2.144 -0.48,0.944 -1.472,1.504 -0.976,0.544 -2.496,0.544 -2.128,0 -3.248,-1.152 -1.104,-1.168 -1.104,-3.072 v -7.36 h 1.44 v 7.408 q 0,1.392 0.736,2.16 0.752,0.768 2.256,0.768 1.552,0 2.24,-0.816 0.704,-0.832 0.704,-2.128 v -7.392 h 1.424 z m 6.71,-7.392 q 2.128,0 3.136,0.816 1.024,0.8 1.024,2.432 0,0.912 -0.336,1.52 -0.336,0.608 -0.864,0.976 -0.512,0.352 -1.088,0.56 l 3.136,5.12 h -1.68 l -2.768,-4.72 h -2.272 v 4.72 h -1.44 v -11.424 z m -0.08,1.248 h -1.632 v 4.24 h 1.712 q 1.392,0 2.032,-0.544 0.64,-0.56 0.64,-1.632 0,-1.12 -0.672,-1.584 -0.672,-0.48 -2.08,-0.48 z m 17.398,4.448 q 0,1.776 -0.608,3.104 -0.592,1.312 -1.76,2.048 -1.168,0.736 -2.896,0.736 -1.776,0 -2.96,-0.736 -1.168,-0.736 -1.744,-2.064 -0.576,-1.328 -0.576,-3.104 0,-1.76 0.576,-3.072 0.576,-1.312 1.744,-2.048 1.184,-0.736 2.976,-0.736 1.712,0 2.88,0.736 1.168,0.72 1.76,2.048 0.608,1.312 0.608,3.088 z m -9.024,0 q 0,2.16 0.912,3.408 0.912,1.232 2.848,1.232 1.952,0 2.848,-1.232 0.896,-1.248 0.896,-3.408 0,-2.16 -0.896,-3.376 -0.896,-1.232 -2.832,-1.232 -1.936,0 -2.864,1.232 -0.912,1.216 -0.912,3.376 z m 18.582,2.672 q 0,1.52 -1.104,2.368 -1.104,0.848 -2.976,0.848 -0.96,0 -1.776,-0.144 -0.816,-0.144 -1.36,-0.4 v -1.376 q 0.576,0.256 1.424,0.464 0.864,0.208 1.776,0.208 1.28,0 1.92,-0.496 0.656,-0.496 0.656,-1.344 0,-0.56 -0.24,-0.944 -0.24,-0.384 -0.832,-0.704 -0.576,-0.336 -1.616,-0.704 -1.456,-0.528 -2.208,-1.296 -0.736,-0.768 -0.736,-2.096 0,-0.912 0.464,-1.552 0.464,-0.656 1.28,-1.008 0.832,-0.352 1.904,-0.352 0.944,0 1.728,0.176 0.784,0.176 1.424,0.464 l -0.448,1.232 q -0.592,-0.256 -1.296,-0.432 -0.688,-0.176 -1.44,-0.176 -1.072,0 -1.616,0.464 -0.544,0.448 -0.544,1.2 0,0.576 0.24,0.96 0.24,0.384 0.784,0.688 0.544,0.304 1.472,0.656 1.008,0.368 1.696,0.8 0.704,0.416 1.056,1.008 0.368,0.592 0.368,1.488 z"
         id="path5" /></g></g></svg>
