<?xml version="1.0" encoding="UTF-8" standalone="no"?>
<!-- Created with Inkscape (http://www.inkscape.org/) -->

<svg
   width="160"
   height="160"
   viewBox="0 0 42.333332 42.333333"
   version="1.1"
   id="svg1"
   xml:space="preserve"
   xmlns:xlink="http://www.w3.org/1999/xlink"
   xmlns="http://www.w3.org/2000/svg"
   xmlns:svg="http://www.w3.org/2000/svg"><defs
     id="defs1"><linearGradient
       id="linearGradient44"><stop
         style="stop-color:#1e3d3a;stop-opacity:1;"
         offset="0"
         id="stop43" /><stop
         style="stop-color:#e1e1e1;stop-opacity:1;"
         offset="1"
         id="stop44" /></linearGradient><linearGradient
       id="linearGradient41"><stop
         style="stop-color:#e1e1e1;stop-opacity:1;"
         offset="0.49730593"
         id="stop40" /><stop
         style="stop-color:#587b98;stop-opacity:1;"
         offset="0.49730593"
         id="stop41" /></linearGradient><linearGradient
       id="swatch37"><stop
         style="stop-color:#000000;stop-opacity:1;"
         offset="0"
         id="stop37" /></linearGradient><linearGradient
       id="swatch36"><stop
         style="stop-color:#e1e1e1;stop-opacity:1;"
         offset="0"
         id="stop36" /></linearGradient><linearGradient
       id="swatch13"><stop
         style="stop-color:#ee11ee;stop-opacity:0.88235294;"
         offset="0"
         id="stop13" /></linearGradient><linearGradient
       id="swatch9"><stop
         style="stop-color:#e1e1e1;stop-opacity:0.88235294;"
         offset="0"
         id="stop9" /></linearGradient><linearGradient
       id="swatch8"><stop
         style="stop-color:#000000;stop-opacity:1;"
         offset="0"
         id="stop8" /></linearGradient><linearGradient
       id="swatch7"><stop
         style="stop-color:#e1e1e1;stop-opacity:0.98431373;"
         offset="0.49185583"
         id="stop7" /><stop
         style="stop-color:#244444;stop-opacity:0.98431373;"
         offset="0.49185583"
         id="stop46" /></linearGradient><linearGradient
       xlink:href="#linearGradient44"
       id="linearGradient22"
       gradientUnits="userSpaceOnUse"
       x1="12.506102"
       y1="23.808908"
       x2="31.692539"
       y2="23.808908" /><linearGradient
       xlink:href="#swatch7"
       id="linearGradient46"
       gradientUnits="userSpaceOnUse"
       x1="12.506102"
       y1="23.808908"
       x2="31.692539"
       y2="23.808908" /></defs><g
     id="g4-2-3"
     transform="translate(-0.92521996,-45.917372)"><path
       style="opacity:0.994001;fill:#587b98;fill-opacity:1;stroke:none;stroke-width:0.902999;stroke-linecap:round;stroke-miterlimit:2.2;stroke-dasharray:none;stroke-opacity:1;paint-order:markers fill stroke"
       id="path13"
       d="M 36.462396,12.317648 A 17.680218,17.680218 0 0 1 32.426361,36.96243 17.680218,17.680218 0 0 1 7.7718049,32.986536 17.680218,17.680218 0 0 1 11.687536,8.3223525 17.680218,17.680218 0 0 1 36.361199,12.177896"
       transform="translate(-4.4645833e-5,44.466903)" /><path
       style="opacity:0.994001;fill:url(#linearGradient46);fill-opacity:0.882353;stroke:url(#linearGradient22);stroke-width:0.603;stroke-linecap:round;stroke-miterlimit:2.2;stroke-dasharray:none;stroke-opacity:1;paint-order:markers fill stroke"
       d="m 13.638588,12.955889 17.337013,-0.0561 a 0.36076586,0.36076586 44.699721 0 1 0.361924,0.35815 l 0.05351,7.384417 a 0.36333482,0.36333482 142.07953 0 1 -0.454753,0.354277 l -1.901937,-0.494504 a 0.83605971,0.83605971 51.905185 0 1 -0.625604,-0.798012 l -0.04295,-3.221624 a 0.61777557,0.61777557 44.754487 0 0 -0.614779,-0.609533 l -11.101313,-0.05286 a 0.77716853,0.77716853 134.5748 0 0 -0.78072,0.792394 l 0.0322,1.642456 a 0.78709761,0.78709761 51.639814 0 0 0.591165,0.74693 l 14.005462,3.596733 c 0.396554,0.101839 0.769728,0.512555 0.808541,0.920083 0.233778,2.454614 -0.272746,4.52786 -1.519584,6.219736 -1.311372,1.403715 -3.651239,2.996889 -7.019602,4.779523 -0.439718,0.287646 -0.933567,0.277569 -1.481548,-0.03023 -2.598725,-1.369119 -5.290721,-2.797339 -6.833259,-4.749293 -1.072307,-1.569218 -1.576234,-3.382026 -1.511783,-5.438426 l 0.01673,-0.820471 a 0.51224277,0.51224277 143.47437 0 1 0.651445,-0.482495 l 1.759619,0.497285 a 0.53453009,0.53453009 52.532255 0 1 0.389119,0.507701 l 0.01252,1.001151 c 0.007,0.562535 0.122853,1.465965 0.365193,1.972856 0.383957,0.803105 0.941734,1.432389 1.67333,1.887855 1.261564,0.975157 2.567867,1.838464 3.918911,2.589921 0.223545,0.124337 0.588168,0.12198 0.809664,-0.006 0.241273,-0.13937 0.479653,-0.282006 0.716112,-0.426127 1.248506,-0.760962 3.219789,-2.093127 4.214942,-3.164125 0.284219,-0.305881 0.507136,-0.589301 0.663183,-0.855828 0.133705,-0.228369 0.249613,-0.645088 0.33218,-0.896999 0.0857,-0.261469 0.172815,-0.524204 0.163864,-0.721303 -0.0091,-0.200382 -0.375892,-0.342374 -0.585298,-0.39584 L 13.781597,21.346649 a 1.2941441,1.2941441 52.676442 0 1 -0.973785,-1.277187 l 0.115236,-6.408505 a 0.71797971,0.71797971 135.42238 0 1 0.71554,-0.705068 z"
       id="path4-2"
       transform="translate(-4.4645833e-5,44.466903)" /></g></svg>
